<svg width="268" height="38" viewBox="0 0 268 38" fill="none" xmlns="http://www.w3.org/2000/svg">
<g clip-path="url(#clip0_3_25)">
<path d="M95.9087 9.31628V20.1765C95.9087 22.4198 95.0194 24.5311 93.4025 26.1146C91.7856 27.6981 89.6298 28.569 87.3526 28.569H85.1025C80.3865 28.569 76.5464 24.795 76.5464 20.1765V9.31628C76.5464 9.01277 76.8024 8.76205 77.1123 8.76205H81.168C81.4779 8.76205 81.7339 9.01277 81.7339 9.31628V20.2029C81.7339 22.6309 83.7551 24.5971 86.2478 24.5971C88.7405 24.5971 90.7346 22.6309 90.7346 20.2029V9.31628C90.7346 9.01277 90.9907 8.76205 91.3006 8.76205H95.3563C95.6662 8.76205 95.9222 9.01277 95.9222 9.31628H95.9087ZM70.1462 18.8965C69.6881 18.461 69.1626 18.0915 68.5563 17.7616C67.9499 17.4449 67.3166 17.1546 66.6429 16.9171C65.9692 16.6796 65.2686 16.4684 64.5545 16.2837C63.8403 16.0989 63.1397 15.9406 62.466 15.7822C61.7923 15.6239 61.159 15.4787 60.5526 15.3336C59.9598 15.1884 59.4343 15.0433 58.9896 14.8717C58.545 14.7134 58.1947 14.5286 57.9387 14.3307C57.6961 14.1328 57.5749 13.9084 57.5749 13.6577C57.5749 13.5785 57.5883 13.4994 57.6153 13.3938C57.6422 13.3014 57.6961 13.2091 57.7905 13.1167C57.8848 13.0243 58.033 12.9187 58.2216 12.8264C58.4103 12.734 58.6663 12.6548 59.0031 12.5757C59.34 12.4965 59.7442 12.4437 60.2293 12.3909C60.7143 12.3513 61.3072 12.3249 61.9944 12.3249C62.8567 12.3249 63.7056 12.3909 64.5275 12.5229C65.3494 12.6548 66.1175 12.8264 66.8181 13.0243C67.5188 13.2222 68.152 13.4334 68.7045 13.6577C69.1087 13.8161 69.4725 13.9744 69.7689 14.1196L70.1462 14.3043V9.71215L69.971 9.64617C69.4456 9.47463 68.8662 9.30308 68.2464 9.13154C67.5861 8.95999 66.8855 8.80164 66.1713 8.66968C65.4707 8.53772 64.7296 8.43215 64.002 8.35298C62.6277 8.22102 61.3476 8.20783 59.8385 8.32659C59.1379 8.37937 58.4237 8.48494 57.75 8.63009C57.0628 8.77525 56.4026 8.98638 55.7693 9.26349C55.1495 9.52741 54.5836 9.89689 54.112 10.3324C53.6404 10.7678 53.2497 11.2957 52.9667 11.9159C52.6838 12.5361 52.549 13.275 52.549 14.1328C52.549 14.8585 52.6838 15.4919 52.9532 16.0462C53.2227 16.6004 53.5865 17.0886 54.0312 17.4977C54.4893 17.9068 55.0148 18.2763 55.6211 18.5798C56.214 18.8833 56.8607 19.1472 57.5344 19.3715C58.1947 19.5958 58.8953 19.7938 59.6229 19.9653C60.3371 20.1369 61.0242 20.282 61.6979 20.4272C62.3716 20.5723 63.0049 20.7175 63.5978 20.8626C64.1907 21.0078 64.7161 21.1662 65.1608 21.3377C65.6054 21.5092 65.9558 21.7072 66.2118 21.9183C66.4543 22.1295 66.5756 22.3802 66.5756 22.6573C66.5756 22.842 66.5082 23.0268 66.3869 23.2379C66.2657 23.4358 66.0366 23.6206 65.6728 23.8053C65.3225 23.9769 64.8105 24.1352 64.1772 24.2408C63.5304 24.3596 62.695 24.4123 61.6845 24.4123C59.9598 24.4123 58.3159 24.2144 56.8068 23.8185C55.419 23.449 54.1524 22.9608 53.0341 22.3274L52.6433 22.1031V26.8404L52.805 26.9063C53.9234 27.355 55.2304 27.7245 56.6856 28.028C58.1947 28.3447 59.852 28.4899 61.6171 28.4899C62.2908 28.4899 63.0049 28.4635 63.7595 28.4239C64.514 28.3711 65.2686 28.2787 65.9962 28.1336C66.7373 27.9884 67.4514 27.7641 68.1116 27.5002C68.7853 27.223 69.3917 26.8536 69.9037 26.3917C70.4157 25.9299 70.8334 25.3624 71.1433 24.7026C71.4532 24.0428 71.6014 23.2379 71.6014 22.301C71.6014 21.5752 71.4667 20.9286 71.2107 20.3612C70.9547 19.807 70.5909 19.2923 70.1193 18.8701L70.1462 18.8965ZM218.294 10.7546C220.14 12.4041 221.07 15.0697 221.07 18.6589C221.07 22.2482 220.14 24.9138 218.294 26.5765C216.448 28.2259 213.699 29.0705 210.129 29.0705C206.558 29.0705 203.796 28.2259 201.95 26.5765C200.104 24.927 199.161 22.2614 199.161 18.6589C199.161 15.0565 200.091 12.4041 201.936 10.7546C203.782 9.10514 206.531 8.26061 210.115 8.26061C213.699 8.26061 216.448 9.09195 218.281 10.7546H218.294ZM204.146 18.6721C204.146 20.9022 204.618 22.6177 205.561 23.7393C206.504 24.8742 208.04 25.4548 210.115 25.4548C212.19 25.4548 213.726 24.8742 214.67 23.7393C215.599 22.6045 216.084 20.9022 216.084 18.6721C216.084 16.442 215.613 14.7266 214.683 13.5917C213.74 12.4437 212.217 11.8763 210.129 11.8763C208.04 11.8763 206.504 12.4569 205.574 13.5917C204.631 14.7266 204.16 16.4288 204.16 18.6721H204.146ZM245.673 9.06556C245.566 8.90721 245.39 8.81483 245.188 8.81483H241.941C241.348 8.81483 240.809 9.15793 240.58 9.69896L234.921 22.908L229.262 9.69896C229.033 9.15793 228.494 8.81483 227.901 8.81483H224.654C224.452 8.81483 224.277 8.90721 224.169 9.06556C224.061 9.22391 224.047 9.42184 224.115 9.59339L231.997 27.962C232.172 28.3711 232.59 28.6482 233.048 28.6482H236.807C237.266 28.6482 237.683 28.3843 237.858 27.962L245.741 9.59339C245.822 9.40865 245.795 9.22391 245.687 9.05236L245.673 9.06556ZM193.502 8.81483H189.891C189.567 8.81483 189.311 9.06556 189.311 9.38226V22.0635L180.499 9.39545C180.243 9.02597 179.825 8.81483 179.367 8.81483H174.638C174.315 8.81483 174.059 9.06556 174.059 9.38226V28.0808C174.059 28.3975 174.315 28.6482 174.638 28.6482H178.249C178.572 28.6482 178.828 28.3975 178.828 28.0808V15.3996L187.64 28.0676C187.896 28.4371 188.314 28.6482 188.772 28.6482H193.488C193.812 28.6482 194.068 28.3975 194.068 28.0808V9.38226C194.068 9.06556 193.812 8.81483 193.488 8.81483H193.502ZM268 9.71215V28.0808C268 28.3975 267.744 28.6482 267.421 28.6482H263.81C263.486 28.6482 263.23 28.3975 263.23 28.0808V23.6734H252.68L250.551 28.6482H245.983C245.862 28.6482 245.754 28.5954 245.687 28.4899C245.62 28.3843 245.606 28.2655 245.66 28.16L252.303 12.668C253.313 10.3192 255.644 8.80164 258.245 8.80164H267.097C267.609 8.80164 268.014 9.21071 268.014 9.69896L268 9.71215ZM260.158 12.3777C258.555 12.3777 257.126 13.3146 256.507 14.753L254.203 20.1105H263.23V12.3777H260.158ZM121.59 16.4288C121.59 20.6383 118.101 24.056 113.802 24.056H106.715V28.0808C106.715 28.3975 106.459 28.6482 106.136 28.6482H102.524C102.201 28.6482 101.945 28.3975 101.945 28.0808V9.38226C101.945 9.06556 102.201 8.81483 102.524 8.81483H113.802C118.101 8.81483 121.59 12.2326 121.59 16.442V16.4288ZM112.684 12.3777H106.715V20.4932H112.684C114.961 20.4932 116.821 18.6721 116.821 16.442C116.821 14.2119 114.961 12.3909 112.684 12.3909V12.3777ZM143.391 8.81483H126.549C126.225 8.81483 125.969 9.06556 125.969 9.38226V27.9752C125.969 28.2919 126.225 28.5426 126.549 28.5426H143.391C143.715 28.5426 143.971 28.2919 143.971 27.9752V25.5472C143.971 25.2305 143.715 24.9798 143.391 24.9798H130.739V20.4668H141.734C142.058 20.4668 142.314 20.2161 142.314 19.8994V17.4713C142.314 17.1546 142.058 16.9039 141.734 16.9039H130.739V12.3909H143.391C143.715 12.3909 143.971 12.1402 143.971 11.8235V9.39545C143.971 9.07875 143.715 8.82803 143.391 8.82803V8.81483ZM169.06 28.0148C169.127 28.1204 169.127 28.2523 169.06 28.3579C168.992 28.4767 168.884 28.5426 168.75 28.5426H164.734C164.222 28.5426 163.737 28.2787 163.468 27.8433L160.84 23.581C159.843 21.9975 158.617 21.1793 157.175 21.1793H153.632V27.962C153.632 28.2787 153.376 28.5294 153.052 28.5294H149.441C149.118 28.5294 148.862 28.2787 148.862 27.962V9.38226C148.862 9.06556 149.118 8.81483 149.441 8.81483H161.258C163.293 8.81483 164.977 9.38226 166.271 10.4907C167.564 11.5992 168.211 13.1167 168.211 15.0037C168.211 17.6429 166.567 19.2528 163.198 19.9257L162.511 20.0577L163.171 20.3084C163.683 20.5064 164.169 20.8363 164.613 21.3113C164.937 21.6544 165.624 22.6177 165.988 23.1587L169.046 28.0148H169.06ZM162.282 12.9847C161.541 12.5888 160.665 12.3909 159.695 12.3909H153.659V17.6165H159.695C160.665 17.6165 161.541 17.4185 162.282 17.0227C163.077 16.6004 163.468 15.9406 163.468 15.0037C163.468 14.0668 163.077 13.4202 162.282 12.9847Z" fill="white"/>
<path d="M29.8314 10.3455L33.3212 6.29442C39.708 13.341 39.7214 23.9769 33.3482 31.0234L29.7236 26.7216C25.7084 21.9579 25.7488 15.0565 29.818 10.3455H29.8314ZM10.4691 8.20782C15.2929 12.193 22.3264 12.2326 27.1905 8.30019L36.3529 0.910514C36.7302 0.607009 36.5146 0 36.0161 0H19.0656C14.5114 0 9.94365 1.5967 6.33259 4.7769L10.4826 8.20782H10.4691ZM27.6352 29.308C22.8114 25.3228 15.7779 25.2833 10.9138 29.2156L1.96698 36.4338C1.5897 36.7373 1.80529 37.3443 2.30383 37.3443H19.0656C23.5794 37.3443 28.1068 35.774 31.7043 32.6465L27.6486 29.2948L27.6352 29.308ZM8.38065 10.781L4.68875 6.39999C-1.63061 13.4862 -1.57671 24.122 4.85044 31.129L8.27286 27.1571C12.342 22.4329 12.3825 15.5447 8.36718 10.781H8.38065Z" fill="url(#paint0_linear_3_25)"/>
</g>
<defs>
<linearGradient id="paint0_linear_3_25" x1="1.03727" y1="36.315" x2="36.4208" y2="0.18529" gradientUnits="userSpaceOnUse">
<stop offset="0.13" stop-color="#3838F4"/>
<stop offset="0.36" stop-color="#8B7FFF"/>
<stop offset="0.69" stop-color="#E6FF67"/>
</linearGradient>
<clipPath id="clip0_3_25">
<rect width="268" height="37.3443" fill="white"/>
</clipPath>
</defs>
</svg>
