<svg width="40" height="40" viewBox="0 0 40 40" fill="none" xmlns="http://www.w3.org/2000/svg">
<path d="M13.4433 20.5517C14.2784 21.0879 15.1134 21.6138 15.9278 22.1604C16.0412 22.2325 16.134 22.4285 16.1443 22.5728C16.2062 23.4803 16.2577 24.3774 16.2887 25.2849C16.2887 25.3777 16.2062 25.5427 16.1134 25.5736C13.3815 26.7801 10.6495 28.0072 7.67011 28.4713C7.12372 28.5538 6.55671 28.5331 6.00001 28.4919C5.48455 28.4609 5.42269 28.296 5.64949 27.8113C6.26805 26.4707 7.28867 25.4602 8.32991 24.4702C9.83506 23.0369 11.5258 21.8304 13.2474 20.6548C13.3093 20.6136 13.3815 20.5826 13.4536 20.5414L13.4433 20.5517Z" fill="#3838F4"/>
<path d="M17.134 14.0552C17.3918 11.6319 17.6907 9.2395 18.299 6.89869C18.5773 5.81594 18.8866 4.7435 19.4949 3.7948C19.8763 3.20702 20.0928 3.18639 20.4949 3.76386C21.0825 4.59913 21.3815 5.56845 21.6392 6.54808C22.2062 8.74453 22.567 10.9925 22.8557 13.2405C22.8866 13.4983 22.8969 13.7664 22.9278 14.0655C22.0103 14.5398 21.0825 15.0142 20.1546 15.4885C20.0825 15.5195 19.9691 15.5195 19.8969 15.4885C18.9794 15.0142 18.0619 14.5398 17.1443 14.0655L17.134 14.0552Z" fill="#3838F4"/>
<path d="M33.4639 28.6569C32.1856 28.5847 30.9382 28.296 29.7423 27.8629C27.8247 27.1616 25.9278 26.4192 24.0206 25.6974C23.8144 25.6252 23.732 25.522 23.7526 25.2952C23.8144 24.3465 23.8454 23.4081 23.9175 22.4594C23.9175 22.346 24.0516 22.2119 24.1546 22.1397C24.9072 21.6448 25.6701 21.1498 26.433 20.6754C26.5361 20.6136 26.7423 20.6239 26.8351 20.6961C29.0412 22.315 31.2062 23.9753 33.0516 26.0067C33.5155 26.512 33.9175 27.0792 34.2887 27.6669C34.701 28.3269 34.5361 28.5847 33.7526 28.6569C33.6598 28.6569 33.567 28.6569 33.4742 28.6569H33.4639Z" fill="#3838F4"/>
<path d="M26.6701 19.5927C25.7938 19.0255 24.9278 18.4687 24.0619 17.9015C23.9794 17.85 23.9072 17.7159 23.9072 17.6231C23.8454 16.7157 23.8041 15.8185 23.7526 14.9111C23.7423 14.6842 23.8041 14.5501 24.0309 14.4677C25.134 14.0242 26.2371 13.5602 27.3505 13.1168C27.4639 13.0652 27.6598 13.0962 27.7732 13.1683C28.4536 13.5396 29.2062 13.323 29.5052 12.6115C29.6083 12.364 29.7423 12.2609 29.9691 12.199C31.2474 11.8484 32.5258 11.4875 33.8763 11.5391C34.5464 11.57 34.732 11.8072 34.3711 12.3846C33.9278 13.0859 33.4433 13.7871 32.8763 14.3852C31 16.3341 28.8866 18.0253 26.6804 19.603L26.6701 19.5927Z" fill="#3838F4"/>
<path d="M17.1959 25.9758C18.0619 25.5324 18.9278 25.0786 19.7938 24.6558C19.9072 24.594 20.1031 24.6043 20.2268 24.6558C20.9897 25.0271 21.732 25.4602 22.5052 25.8108C22.866 25.9758 22.9072 26.1923 22.866 26.5223C22.7526 27.3266 22.6598 28.131 22.5567 28.9353C22.3402 30.678 22.0516 32.4104 21.4949 34.0706C21.2371 34.844 20.866 35.5865 20.4639 36.298C20.1237 36.8858 19.9382 36.8446 19.5567 36.298C18.9485 35.4215 18.6289 34.4316 18.3299 33.421C18.2474 33.1529 18.1856 32.8848 18.1031 32.5857C18.5155 32.2557 18.8248 31.8433 18.7217 31.2452C18.6392 30.7502 18.3711 30.4099 17.8969 30.2759C17.6804 30.214 17.5979 30.1315 17.5773 29.9046C17.4639 28.7806 17.3196 27.6566 17.1959 26.5326C17.1753 26.347 17.1959 26.1614 17.1959 25.9655V25.9758Z" fill="#3838F4"/>
<path d="M13.3711 19.5514C12.268 18.7059 11.1753 17.8603 10.0825 17.0147C10.0103 16.9528 9.94846 16.7982 9.96908 16.695C10.0619 16.1588 10 15.6845 9.55671 15.3235C9.14433 14.9832 8.76289 14.9729 8.09279 15.2823C7.23712 14.4573 6.41238 13.5808 5.82475 12.5187C5.74227 12.364 5.67011 12.2093 5.61856 12.0443C5.52578 11.7556 5.57732 11.5803 5.93815 11.5184C6.89691 11.3534 7.81444 11.5494 8.74227 11.7453C11.3093 12.2918 13.6804 13.3333 16.0309 14.4677C16.2474 14.5708 16.299 14.6739 16.2784 14.9214C16.2062 15.767 16.1959 16.6228 16.134 17.4787C16.1237 17.6437 16.0103 17.8603 15.8763 17.9428C15.0722 18.4893 14.2474 18.9946 13.3711 19.5514Z" fill="#3838F4"/>
<path d="M16.9382 20.1083C16.9382 19.5927 16.9279 19.0668 16.9382 18.5512C16.9382 18.4171 17.0413 18.2418 17.1443 18.18C18.0309 17.6437 18.9278 17.1178 19.8248 16.6125C19.9072 16.5713 20.0516 16.5713 20.134 16.6125C21.0722 17.1281 22.0103 17.654 22.9382 18.2006C23.0516 18.2728 23.1547 18.4687 23.1547 18.6027C23.1753 19.5927 23.1753 20.5723 23.1547 21.5623C23.1547 21.7169 23.0206 21.9335 22.8866 22.016C22 22.5522 21.1031 23.0678 20.1959 23.5731C20.0928 23.6247 19.9175 23.6247 19.8144 23.5731C18.9485 23.0884 18.0825 22.5832 17.2165 22.0985C17.0103 21.9851 16.9175 21.8407 16.9279 21.5932C16.9485 21.0982 16.9279 20.6033 16.9279 20.1186L16.9382 20.1083ZM17.8969 20.0052C17.8969 21.1395 18.8248 22.0469 19.9588 22.0469C21.1031 22.0469 22.0103 21.1395 22.0103 19.9949C22.0103 18.8399 21.0825 17.9118 19.9278 17.9222C18.8144 17.9325 17.8763 18.8812 17.8866 19.9949L17.8969 20.0052Z" fill="#3838F4"/>
<path d="M23.9278 21.4282V18.7471L26.0103 20.0773L23.9278 21.4385V21.4282Z" fill="#3838F4"/>
<path d="M22.9691 25.2333L20.7629 24.1196L23.134 22.7585L22.9691 25.2333Z" fill="#3838F4"/>
<path d="M20.8454 16.0041L23.0103 14.8801L23.1443 17.3344L20.8351 16.0041H20.8454Z" fill="#3838F4"/>
<path d="M17 17.2622V14.942L19.1237 16.0351L17 17.2622Z" fill="#3838F4"/>
<path d="M19.2268 24.099L17.1134 25.1302L17 22.8203L19.2268 24.1093V24.099Z" fill="#3838F4"/>
<path d="M16.0619 18.8296C16.0619 18.8296 16.1134 18.9018 16.1134 18.9224C16.1134 19.7267 16.1134 20.5311 16.1134 21.3973L14.134 20.067L16.0619 18.8399V18.8296Z" fill="#3838F4"/>
<path d="M39.9999 19.5411V20.5001C39.9793 20.6548 39.938 20.8095 39.9277 20.9642C39.6803 25.7695 37.9174 29.9459 34.6906 33.5138C28.7834 40.0412 18.9999 41.8665 11.1339 37.9376C3.27825 33.9985 -1.03103 25.7592 0.216392 17.025C1.40196 8.62078 8.14423 1.71178 16.4947 0.31967C17.2576 0.195927 18.0205 0.103119 18.7834 0H21.1855C21.3092 0.0309358 21.4432 0.0721835 21.5669 0.0824955C23.6288 0.237175 25.6391 0.670276 27.5257 1.50554C34.4535 4.55788 38.5669 9.82727 39.7525 17.324C39.8659 18.0562 39.9071 18.7987 39.9896 19.5411H39.9999ZM16.3401 26.4192C16.4844 27.6051 16.6288 28.8322 16.7937 30.049C16.8246 30.2965 16.7937 30.4511 16.6288 30.6471C16.0927 31.2967 16.3195 32.2042 17.0824 32.596C17.1958 32.6579 17.2989 32.8023 17.3401 32.9363C17.536 33.555 17.6906 34.1944 17.9071 34.8028C18.2061 35.669 18.536 36.5352 19.2267 37.1848C19.7422 37.6695 20.2989 37.7107 20.7731 37.1848C21.1545 36.7517 21.4947 36.2568 21.7319 35.7309C22.6597 33.6375 23.0411 31.3895 23.3504 29.1415C23.4741 28.2341 23.5669 27.3369 23.6803 26.4089C23.7525 26.4398 23.7937 26.4501 23.8246 26.4604C26.0618 27.4813 28.3092 28.4609 30.7112 29.0281C31.67 29.255 32.67 29.4303 33.6597 29.4406C35.1855 29.4509 35.7009 28.5641 34.938 27.2441C34.4844 26.4604 33.9071 25.7283 33.2886 25.0477C31.8556 23.47 30.1958 22.1603 28.4844 20.9023C28.103 20.6239 27.7319 20.3454 27.3401 20.0567C28.0411 19.5411 28.7112 19.0668 29.371 18.5615C30.9896 17.3137 32.5669 16.0247 33.8968 14.4676C34.4432 13.8283 34.9587 13.1683 35.2164 12.3537C35.4638 11.5494 35.1752 11.0028 34.371 10.8172C33.9999 10.7347 33.5978 10.6729 33.2267 10.7244C32.0514 10.91 30.8865 11.1575 29.7112 11.3638C29.5875 11.3844 29.4123 11.3844 29.3401 11.3122C28.9793 10.91 28.536 10.7863 28.0411 10.9307C27.5051 11.0853 27.2886 11.5184 27.1958 12.034C27.1752 12.1371 27.1133 12.2712 27.0308 12.3021C25.9277 12.7765 24.8143 13.2302 23.6803 13.6942C23.5669 12.7765 23.4638 11.869 23.3504 10.9616C23.0927 8.97138 22.7525 6.99149 22.0411 5.10441C21.7731 4.38257 21.3813 3.67105 20.9174 3.06264C20.3504 2.30987 19.5875 2.37174 19.0205 3.13483C18.7112 3.54731 18.4432 4.00103 18.2473 4.47538C17.402 6.4759 17.0102 8.58984 16.7215 10.7244C16.5875 11.704 16.4844 12.694 16.3607 13.7046C16.237 13.6427 16.1442 13.6014 16.0514 13.5602C13.2679 12.3228 10.4844 11.106 7.43289 10.7141C6.80402 10.6316 6.13392 10.7141 5.50505 10.8378C4.92773 10.9616 4.73186 11.3328 4.79371 11.9103C4.82464 12.23 4.94835 12.5599 5.08237 12.8487C5.64938 13.9933 6.54629 14.8698 7.42258 15.7669C7.53598 15.8907 7.61845 16.0969 7.61845 16.2722C7.61845 17.0456 8.27825 17.6643 9.03082 17.52C9.27825 17.4684 9.42258 17.5509 9.59783 17.6747C10.5463 18.4068 11.5051 19.1286 12.4535 19.8505C12.536 19.9123 12.6081 19.9742 12.6906 20.0361C12.6494 20.067 12.6494 20.0773 12.6288 20.0876C10.371 21.686 8.17515 23.3359 6.31948 25.4086C5.63907 26.1614 4.9999 26.9451 4.75247 27.966C4.61845 28.5125 4.84526 28.9353 5.35041 29.1725C5.96897 29.4612 6.62876 29.4406 7.26794 29.3684C8.84526 29.1931 10.371 28.7703 11.8556 28.2135C13.371 27.6463 14.8556 27.0276 16.3607 26.4295L16.3401 26.4192Z" fill="#3838F4"/>
<path d="M16.3402 26.4192C14.8454 27.0173 13.3505 27.636 11.8351 28.2031C10.3505 28.76 8.83505 29.1828 7.24743 29.3581C6.59794 29.4303 5.93815 29.4509 5.3299 29.1622C4.81444 28.925 4.59794 28.5022 4.73196 27.9557C4.97938 26.9348 5.62887 26.1511 6.29897 25.3983C8.15464 23.3359 10.3608 21.6757 12.6082 20.0773C12.6186 20.0773 12.6289 20.0567 12.6701 20.0258C12.5876 19.9639 12.5155 19.902 12.433 19.8402C11.4845 19.1183 10.5258 18.3862 9.57732 17.6643C9.40206 17.5303 9.25773 17.4581 9.01031 17.5097C8.25773 17.654 7.59794 17.025 7.59794 16.2619C7.59794 16.0969 7.52578 15.8804 7.40206 15.7566C6.52578 14.8595 5.62887 13.983 5.06186 12.8384C4.91753 12.5496 4.80413 12.2196 4.7732 11.9C4.71134 11.3122 4.91753 10.941 5.48454 10.8275C6.1134 10.6935 6.78351 10.6213 7.41237 10.7038C10.4639 11.0956 13.2577 12.3124 16.0309 13.5499C16.1237 13.5911 16.2165 13.6427 16.3402 13.6942C16.4639 12.6837 16.567 11.6937 16.701 10.7141C16.9897 8.57953 17.3814 6.46558 18.2268 4.46506C18.4227 3.99071 18.701 3.53699 19 3.12451C19.567 2.36143 20.3299 2.30987 20.8969 3.05233C21.3608 3.66073 21.7526 4.37226 22.0206 5.09409C22.732 6.98118 23.0825 8.95075 23.3299 10.9513C23.4433 11.8587 23.5464 12.7662 23.6598 13.6839C24.7835 13.2199 25.8969 12.7662 27.0103 12.2918C27.0928 12.2609 27.165 12.1268 27.1753 12.0237C27.268 11.5081 27.4845 11.075 28.0206 10.9203C28.5155 10.776 28.9588 10.8997 29.3196 11.3019C29.3814 11.3741 29.567 11.3741 29.6907 11.3534C30.866 11.1472 32.0309 10.8997 33.2062 10.7141C33.5773 10.6522 33.9794 10.7141 34.3505 10.8069C35.1546 10.9925 35.4433 11.5391 35.1959 12.3434C34.9381 13.158 34.4227 13.818 33.8763 14.4573C32.5361 16.0144 30.9691 17.3137 29.3505 18.5512C28.701 19.0565 28.0206 19.5308 27.3196 20.0464C27.7113 20.3351 28.0928 20.6136 28.4639 20.892C30.1753 22.15 31.8351 23.47 33.268 25.0374C33.8866 25.7077 34.4639 26.4398 34.9175 27.2338C35.6701 28.5537 35.165 29.4406 33.6392 29.4303C32.6598 29.4303 31.6598 29.2446 30.6907 29.0178C28.2887 28.4506 26.0412 27.471 23.8041 26.4501C23.7732 26.4295 23.732 26.4192 23.6598 26.3986C23.5464 27.3163 23.4536 28.2238 23.3299 29.1312C23.0206 31.3895 22.6392 33.6272 21.7113 35.7205C21.4742 36.2465 21.134 36.7414 20.7526 37.1745C20.2887 37.7004 19.732 37.6695 19.2062 37.1745C18.5155 36.5249 18.1856 35.6587 17.8866 34.7925C17.6701 34.1841 17.5258 33.5447 17.3196 32.926C17.2784 32.792 17.1753 32.6476 17.0619 32.5857C16.299 32.1939 16.0619 31.2967 16.6083 30.6368C16.7732 30.4408 16.8041 30.2758 16.7732 30.0387C16.6083 28.8219 16.4639 27.5947 16.3196 26.4089L16.3402 26.4192ZM13.433 20.5517C13.3711 20.5826 13.299 20.6136 13.2268 20.6651C11.5155 21.8407 9.81444 23.0472 8.30928 24.4805C7.26804 25.4705 6.23712 26.481 5.62887 27.8216C5.40206 28.3063 5.46392 28.4713 5.97938 28.5022C6.53609 28.5331 7.1031 28.5641 7.64949 28.4816C10.6392 28.0175 13.3608 26.7904 16.0928 25.5839C16.1753 25.5427 16.268 25.388 16.268 25.2952C16.2371 24.3877 16.1856 23.4803 16.1237 22.5831C16.1237 22.4388 16.0206 22.2532 15.9072 22.1707C15.0928 21.6241 14.2577 21.0982 13.4227 20.562L13.433 20.5517ZM17.134 14.0552C18.0516 14.5295 18.9691 15.0142 19.8866 15.4782C19.9588 15.5091 20.0722 15.5195 20.1443 15.4782C21.0825 15.0039 22.0103 14.5295 22.9175 14.0552C22.8969 13.7561 22.8866 13.4983 22.8454 13.2302C22.5567 10.9719 22.1959 8.7342 21.6289 6.53776C21.3814 5.55813 21.0722 4.58881 20.4845 3.75354C20.0825 3.18638 19.866 3.19669 19.4845 3.78448C18.866 4.73317 18.567 5.80561 18.2887 6.88837C17.6804 9.22918 17.3814 11.6319 17.1237 14.0449L17.134 14.0552ZM33.4639 28.6569C33.5567 28.6569 33.6495 28.6569 33.7423 28.6569C34.5258 28.595 34.6907 28.3269 34.2784 27.6669C33.9175 27.0791 33.5052 26.512 33.0412 26.0067C31.1959 23.9752 29.0206 22.315 26.8247 20.6961C26.732 20.6239 26.5155 20.6136 26.4227 20.6754C25.6495 21.1498 24.8969 21.6447 24.1443 22.1397C24.0412 22.2119 23.9175 22.346 23.9072 22.4594C23.8454 23.3978 23.8041 24.3465 23.7423 25.2952C23.732 25.522 23.8144 25.6252 24.0103 25.6973C25.9175 26.4192 27.8247 27.1616 29.732 27.8628C30.9278 28.2959 32.1753 28.5847 33.4536 28.6569H33.4639ZM26.6701 19.5927C28.8763 18.0149 30.9897 16.3238 32.866 14.3748C33.4433 13.7767 33.9278 13.0755 34.3608 12.3743C34.7113 11.8072 34.5361 11.5597 33.866 11.5287C32.5155 11.4669 31.2371 11.8381 29.9588 12.1887C29.732 12.2506 29.5876 12.364 29.4948 12.6012C29.1959 13.3127 28.4433 13.5293 27.7629 13.158C27.6495 13.0962 27.4536 13.0652 27.3402 13.1065C26.2268 13.5499 25.134 14.0139 24.0206 14.4573C23.7938 14.5501 23.732 14.6739 23.7423 14.9007C23.8041 15.8082 23.8351 16.7053 23.8969 17.6128C23.8969 17.7159 23.9794 17.8396 24.0515 17.8912C24.9175 18.4584 25.7835 19.0152 26.6598 19.5824L26.6701 19.5927ZM17.1856 25.9758C17.1856 26.1614 17.165 26.3573 17.1856 26.5429C17.3093 27.6669 17.4433 28.7909 17.567 29.9149C17.5876 30.1418 17.6701 30.2243 17.8866 30.2862C18.3608 30.4202 18.6289 30.7605 18.7113 31.2555C18.8144 31.8536 18.5052 32.266 18.0928 32.596C18.1753 32.8951 18.2371 33.1735 18.3196 33.4313C18.6186 34.4419 18.9381 35.4318 19.5464 36.3083C19.9278 36.8652 20.1134 36.8961 20.4536 36.3083C20.8557 35.5968 21.2268 34.8543 21.4845 34.0809C22.0412 32.4104 22.3299 30.6883 22.5464 28.9456C22.6495 28.1413 22.7423 27.3369 22.8557 26.5326C22.8969 26.2026 22.8557 25.9861 22.4948 25.8211C21.7217 25.4705 20.9794 25.0477 20.2165 24.6661C20.0928 24.6043 19.8969 24.6043 19.7835 24.6661C18.9175 25.0889 18.0516 25.5427 17.1856 25.9861V25.9758ZM13.3608 19.5617C14.2371 19.0049 15.0619 18.4893 15.866 17.9531C16 17.8603 16.1134 17.654 16.1237 17.489C16.1856 16.6435 16.1959 15.7876 16.268 14.9317C16.2887 14.6842 16.2268 14.5811 16.0206 14.478C13.6701 13.3436 11.299 12.3021 8.73196 11.7556C7.81444 11.5597 6.8866 11.3637 5.92784 11.5287C5.56701 11.5906 5.51547 11.7659 5.60825 12.0546C5.6598 12.2196 5.73196 12.3743 5.81444 12.529C6.40206 13.5911 7.22681 14.4573 8.08248 15.2926C8.75258 14.9935 9.13402 15.0039 9.54639 15.3338C9.98969 15.6948 10.0515 16.1794 9.95877 16.7053C9.93815 16.8085 10 16.9631 10.0722 17.025C11.165 17.8809 12.2577 18.7162 13.3608 19.5617ZM16.9278 20.1186C16.9278 20.6136 16.9381 21.1085 16.9278 21.5932C16.9175 21.8407 17.0103 21.985 17.2165 22.0985C18.0825 22.5934 18.9381 23.0987 19.8144 23.5731C19.9175 23.6246 20.0928 23.6246 20.1959 23.5731C21.1031 23.0678 22 22.5522 22.8866 22.016C23.0206 21.9335 23.1546 21.7169 23.1546 21.5623C23.1753 20.5723 23.1753 19.5927 23.1546 18.6027C23.1546 18.4584 23.0515 18.2624 22.9381 18.2006C22.0103 17.654 21.0722 17.1281 20.134 16.6125C20.0516 16.5713 19.8969 16.561 19.8247 16.6125C18.9278 17.1281 18.0309 17.6437 17.1443 18.1799C17.0412 18.2418 16.9485 18.4274 16.9381 18.5512C16.9175 19.0668 16.9381 19.5927 16.9381 20.1083L16.9278 20.1186ZM23.9072 21.4385L25.9897 20.0773L23.9072 18.7471V21.4282V21.4385ZM22.9588 25.2436L23.1237 22.7688L20.7526 24.1299L22.9588 25.2436ZM20.8351 16.0144L23.1443 17.3447L23.0103 14.8904L20.8454 16.0144H20.8351ZM16.9897 17.2725L19.1134 16.0454L16.9897 14.9523V17.2725ZM19.2165 24.1093L16.9897 22.8203L17.1031 25.1302L19.2165 24.099V24.1093ZM16.0515 18.8399L14.1237 20.067L16.1031 21.3973C16.1031 20.5311 16.1031 19.7267 16.1031 18.9224C16.1031 18.9018 16.0825 18.8811 16.0515 18.8296V18.8399Z" fill="#AEA5F8"/>
<path d="M17.9072 20.0155C17.9072 18.9018 18.8351 17.9531 19.9485 17.9428C21.1031 17.9324 22.0309 18.8605 22.0309 20.0155C22.0309 21.1601 21.1134 22.0675 19.9794 22.0675C18.8351 22.0675 17.9175 21.1601 17.9175 20.0258L17.9072 20.0155Z" fill="#AEA5F8"/>
</svg>
