<svg width="40" height="40" viewBox="0 0 40 40" fill="none" xmlns="http://www.w3.org/2000/svg">
<circle cx="20" cy="20" r="20" fill="#171717"/>
<path d="M26.7832 15.3546L28.9797 12.8512C32.9997 17.2056 33.0082 23.7781 28.9967 28.1325L26.7154 25.4742C24.1881 22.5305 24.2135 18.2657 26.7747 15.3546H26.7832ZM14.5962 14.0336C17.6324 16.4962 22.0594 16.5207 25.121 14.0907L30.8879 9.5242C31.1254 9.33665 30.9897 8.96155 30.6759 8.96155H20.007C17.1405 8.96155 14.2655 9.94823 11.9926 11.9134L14.6047 14.0336H14.5962ZM25.4008 27.0724C22.3647 24.6098 17.9377 24.5854 14.8761 27.0154L9.24478 31.4758C9.00732 31.6634 9.14301 32.0385 9.4568 32.0385H20.007C22.8481 32.0385 25.6977 31.0681 27.962 29.1355L25.4093 27.0643L25.4008 27.0724ZM13.2817 15.6237L10.9579 12.9164C6.98039 17.2953 7.01432 23.8678 11.0597 28.1978L13.2138 25.7433C15.775 22.824 15.8005 18.5674 13.2732 15.6237H13.2817Z" fill="url(#paint0_linear_3044_7780)"/>
<defs>
<linearGradient id="paint0_linear_3044_7780" x1="8.6596" y1="31.4024" x2="30.5128" y2="8.67427" gradientUnits="userSpaceOnUse">
<stop offset="0.13" stop-color="#3838F4"/>
<stop offset="0.36" stop-color="#8B7FFF"/>
<stop offset="0.69" stop-color="#E6FF67"/>
</linearGradient>
</defs>
</svg>
