<svg width="28" height="29" viewBox="0 0 28 29" fill="none" xmlns="http://www.w3.org/2000/svg">
<path fill-rule="evenodd" clip-rule="evenodd" d="M17.5871 17.8624C20.8248 14.6247 20.8248 9.37533 17.5871 6.13763C14.3494 2.89993 9.10007 2.89993 5.86237 6.13763C2.62467 9.37533 2.62467 14.6247 5.86237 17.8624C9.10007 21.1001 14.3494 21.1001 17.5871 17.8624ZM15.3887 15.664C17.4123 13.6404 17.4123 10.3596 15.3887 8.33601C13.3652 6.31244 10.0843 6.31244 8.06076 8.33601C6.0372 10.3596 6.0372 13.6404 8.06076 15.664C10.0843 17.6875 13.3652 17.6875 15.3887 15.664Z" fill="#E6FF67"/>
<rect x="15.3887" y="17.1295" width="3.10899" height="8.29065" rx="1.5545" transform="rotate(-45 15.3887 17.1295)" fill="#E6FF67"/>
</svg>
