<svg width="28" height="28" viewBox="0 0 28 28" fill="none" xmlns="http://www.w3.org/2000/svg">
<circle cx="14" cy="14" r="14" fill="#3838F4"/>
<path d="M11.3531 18.3302C10.3067 18.7489 9.26034 19.1821 8.19952 19.5792C7.16035 19.969 6.09952 20.265 4.98818 20.3878C4.53354 20.4383 4.07169 20.4528 3.64591 20.2506C3.28509 20.0846 3.13354 19.7886 3.22736 19.4059C3.40055 18.6912 3.85519 18.1425 4.32426 17.6155C5.62323 16.1716 7.16756 15.0092 8.74076 13.8902C8.74797 13.8902 8.75519 13.8758 8.78406 13.8541C8.72632 13.8108 8.67581 13.7675 8.61808 13.7242C7.95416 13.2188 7.28303 12.7062 6.61911 12.2008C6.49643 12.107 6.3954 12.0564 6.2222 12.0925C5.6954 12.1936 5.23354 11.7532 5.23354 11.219C5.23354 11.1035 5.18303 10.9519 5.09643 10.8652C4.48303 10.2371 3.85519 9.62346 3.45828 8.8221C3.35725 8.61995 3.27787 8.38893 3.25622 8.16512C3.21292 7.75361 3.35725 7.4937 3.75416 7.41429C4.19437 7.32044 4.66344 7.2699 5.10364 7.32766C7.23973 7.602 9.1954 8.4539 11.1366 9.32025C11.2016 9.34912 11.2665 9.38522 11.3531 9.42132C11.4397 8.7138 11.5119 8.02073 11.6057 7.33488C11.8078 5.84043 12.082 4.36043 12.6737 2.95984C12.8109 2.62774 13.0057 2.31008 13.215 2.0213C13.6119 1.48706 14.1459 1.45096 14.5428 1.97077C14.8676 2.39672 15.1418 2.89487 15.3294 3.40023C15.8274 4.72141 16.0727 6.10034 16.2459 7.50092C16.3253 8.13624 16.3975 8.77156 16.4768 9.4141C17.2634 9.08922 18.0428 8.77156 18.8222 8.43946C18.8799 8.4178 18.9304 8.32395 18.9377 8.25175C19.0026 7.89078 19.1542 7.58756 19.5294 7.47927C19.8758 7.37819 20.1861 7.46483 20.4387 7.74639C20.482 7.79692 20.6119 7.79692 20.6985 7.78249C21.5212 7.63809 22.3366 7.46483 23.1593 7.33488C23.4191 7.29156 23.7006 7.33487 23.9603 7.39985C24.5232 7.5298 24.7253 7.91244 24.5521 8.47556C24.3717 9.0459 24.0109 9.50795 23.6284 9.95556C22.6902 11.0457 21.5933 11.9554 20.4603 12.8217C20.0057 13.1755 19.5294 13.5076 19.0387 13.8685C19.3129 14.0707 19.5799 14.2656 19.8397 14.4605C21.0377 15.3413 22.1995 16.2654 23.2026 17.3628C23.6356 17.8321 24.0397 18.3447 24.3573 18.9006C24.8841 19.8247 24.5305 20.4455 23.4624 20.4383C22.7768 20.4383 22.0768 20.3084 21.3985 20.1495C19.717 19.7525 18.1439 19.0666 16.5779 18.3519C16.5562 18.3374 16.5274 18.3302 16.4768 18.3158C16.3975 18.9583 16.3325 19.5936 16.2459 20.229C16.0294 21.81 15.7624 23.3767 15.1129 24.8422C14.9469 25.2104 14.7088 25.557 14.4418 25.8602C14.117 26.2284 13.7274 26.2067 13.3593 25.8602C12.8758 25.4054 12.6449 24.7989 12.4356 24.1925C12.2841 23.7665 12.183 23.3189 12.0387 22.8857C12.0098 22.7919 11.9377 22.6908 11.8583 22.6475C11.3243 22.3732 11.1583 21.7451 11.5408 21.283C11.6562 21.1458 11.6779 21.0303 11.6562 20.8643C11.5408 20.0124 11.4397 19.1532 11.3387 18.323L11.3531 18.3302ZM9.31808 14.2223C9.27478 14.244 9.22426 14.2656 9.17375 14.3017C7.97581 15.1247 6.78509 15.9694 5.73148 16.9729C5.00261 17.666 4.28096 18.3735 3.85519 19.3121C3.69643 19.6514 3.73973 19.7669 4.10055 19.7886C4.49024 19.8102 4.88715 19.8319 5.26962 19.7741C7.36241 19.4492 9.26756 18.5901 11.1799 17.7454C11.2377 17.7166 11.3026 17.6083 11.3026 17.5433C11.281 16.908 11.2449 16.2727 11.2016 15.6446C11.2016 15.5435 11.1294 15.4135 11.05 15.3558C10.4799 14.9731 9.8954 14.6049 9.31086 14.2295L9.31808 14.2223ZM11.9088 9.674C12.5511 10.0061 13.1933 10.3454 13.8356 10.6703C13.8861 10.692 13.9655 10.6992 14.016 10.6703C14.6727 10.3382 15.3222 10.0061 15.9573 9.674C15.9428 9.46464 15.9356 9.28415 15.9067 9.09644C15.7047 7.51536 15.4521 5.94873 15.0552 4.41097C14.882 3.72511 14.6655 3.04648 14.2542 2.46169C13.9727 2.06462 13.8212 2.07184 13.5542 2.48335C13.1212 3.14755 12.9119 3.89838 12.717 4.65643C12.2913 6.29526 12.082 7.97741 11.9016 9.66678L11.9088 9.674ZM23.3397 19.8969C23.4047 19.8969 23.4696 19.8969 23.5346 19.8969C24.083 19.8535 24.1985 19.6658 23.9098 19.2038C23.6573 18.7923 23.3686 18.3952 23.0438 18.0414C21.7521 16.6192 20.2294 15.4568 18.6923 14.3234C18.6274 14.2728 18.4758 14.2656 18.4109 14.3089C17.8696 14.641 17.3428 14.9876 16.816 15.3341C16.7439 15.3846 16.6573 15.4785 16.65 15.5579C16.6067 16.2149 16.5779 16.8791 16.5346 17.5433C16.5274 17.7021 16.5851 17.7743 16.7222 17.8249C18.0573 18.3302 19.3923 18.85 20.7274 19.341C21.5645 19.6442 22.4377 19.8463 23.3325 19.8969H23.3397ZM18.5841 13.5509C20.1284 12.4463 21.6078 11.2623 22.9212 9.89781C23.3253 9.47907 23.6645 8.98815 23.9676 8.49722C24.2129 8.10014 24.0902 7.92688 23.6212 7.90522C22.6758 7.8619 21.781 8.1218 20.8861 8.36727C20.7274 8.41058 20.6263 8.49 20.5614 8.65605C20.3521 9.1542 19.8253 9.30581 19.349 9.0459C19.2696 9.00259 19.1325 8.98093 19.0531 9.00981C18.2737 9.32024 17.5088 9.64512 16.7294 9.95556C16.5707 10.0205 16.5274 10.1072 16.5346 10.266C16.5779 10.9013 16.5995 11.5294 16.6428 12.1647C16.6428 12.2369 16.7006 12.3236 16.7511 12.3597C17.3573 12.7567 17.9634 13.1466 18.5768 13.5437L18.5841 13.5509ZM11.9449 18.0198C11.9449 18.1497 11.9304 18.2869 11.9449 18.4169C12.0315 19.2038 12.1253 19.9907 12.2119 20.7776C12.2263 20.9365 12.2841 20.9942 12.4356 21.0375C12.7676 21.1314 12.9552 21.3696 13.0129 21.7162C13.0851 22.1349 12.8686 22.4237 12.5799 22.6547C12.6377 22.8641 12.681 23.059 12.7387 23.2395C12.948 23.947 13.1717 24.6401 13.5975 25.2537C13.8645 25.6436 13.9944 25.6653 14.2325 25.2537C14.514 24.7556 14.7737 24.2358 14.9542 23.6943C15.3439 22.5248 15.5459 21.3191 15.6975 20.099C15.7696 19.5359 15.8346 18.9728 15.914 18.4096C15.9428 18.1786 15.914 18.027 15.6614 17.9115C15.1201 17.666 14.6006 17.37 14.0665 17.1029C13.9799 17.0596 13.8428 17.0596 13.7634 17.1029C13.1573 17.3989 12.5511 17.7166 11.9449 18.027V18.0198ZM9.26756 13.5292C9.88096 13.1394 10.4583 12.7784 11.0212 12.403C11.115 12.338 11.1944 12.1936 11.2016 12.0781C11.2449 11.4861 11.2521 10.8869 11.3026 10.2877C11.317 10.1144 11.2737 10.0422 11.1294 9.97C9.48406 9.17585 7.82426 8.44668 6.02736 8.06405C5.38509 7.92688 4.7356 7.78971 4.06447 7.90522C3.81189 7.94853 3.77581 8.07127 3.84076 8.27341C3.87684 8.38893 3.92736 8.49722 3.98509 8.60551C4.39643 9.34912 4.97375 9.95556 5.57272 10.5403C6.04179 10.331 6.3088 10.3382 6.59746 10.5692C6.90777 10.8219 6.95107 11.1612 6.88612 11.5294C6.87169 11.6016 6.91498 11.7099 6.9655 11.7532C7.73045 12.3524 8.4954 12.9372 9.26756 13.5292ZM11.7645 13.9191C11.7645 14.2656 11.7717 14.6122 11.7645 14.9515C11.7573 15.1247 11.8222 15.2258 11.9665 15.3052C12.5727 15.6518 13.1717 16.0055 13.7851 16.3376C13.8573 16.3737 13.9799 16.3737 14.0521 16.3376C14.6872 15.9839 15.315 15.6229 15.9356 15.2475C16.0294 15.1897 16.1232 15.0381 16.1232 14.9298C16.1377 14.2367 16.1377 13.5509 16.1232 12.8578C16.1232 12.7567 16.0511 12.6196 15.9717 12.5763C15.3222 12.1936 14.6655 11.8254 14.0088 11.4644C13.9511 11.4356 13.8428 11.4283 13.7923 11.4644C13.1645 11.8254 12.5366 12.1864 11.916 12.5618C11.8439 12.6051 11.7789 12.7351 11.7717 12.8217C11.7573 13.1827 11.7717 13.5509 11.7717 13.9119L11.7645 13.9191ZM16.65 14.8432L18.1078 13.8902L16.65 12.9589V14.836V14.8432ZM15.9861 17.5072L16.1016 15.7745L14.4418 16.7275L15.9861 17.5072ZM14.4995 11.0457L16.116 11.977L16.0222 10.2588L14.5067 11.0457H14.4995ZM11.8078 11.9265L13.2944 11.0674L11.8078 10.3021V11.9265ZM13.3665 16.713L11.8078 15.8106L11.8871 17.4278L13.3665 16.7058V16.713ZM11.1511 13.0239L9.80158 13.883L11.1872 14.8143C11.1872 14.2079 11.1872 13.6447 11.1872 13.0816C11.1872 13.0672 11.1727 13.0527 11.1511 13.0166V13.0239Z" fill="#F1F1F1"/>
<path d="M12.4497 13.8465C12.4497 13.0669 13.0992 12.4028 13.8786 12.3956C14.6868 12.3883 15.3363 13.038 15.3363 13.8465C15.3363 14.6477 14.694 15.2829 13.9002 15.2829C13.0992 15.2829 12.4569 14.6477 12.4569 13.8537L12.4497 13.8465Z" fill="#F1F1F1"/>
</svg>
