<svg width="28" height="28" viewBox="0 0 28 28" fill="none" xmlns="http://www.w3.org/2000/svg">
<circle cx="14" cy="14" r="14" fill="#3838F4"/>
<path d="M27 14C27 21.1797 21.1797 27 14 27C6.8203 27 1 21.1797 1 14C1 6.8203 6.8203 1 14 1C21.1797 1 27 6.8203 27 14ZM1.56593 14C1.56593 20.8671 7.13285 26.4341 14 26.4341C20.8671 26.4341 26.4341 20.8671 26.4341 14C26.4341 7.13285 20.8671 1.56593 14 1.56593C7.13285 1.56593 1.56593 7.13285 1.56593 14Z" fill="#F1F1F1"/>
<path d="M13.4129 13.2388C12.9149 13.7737 12.4144 14.3117 11.9139 14.8496C11.7555 15.0198 11.5976 15.1904 11.4392 15.3605C11.2035 15.6129 10.9189 15.643 10.6699 15.4423C10.4357 15.2531 10.3857 14.8928 10.5644 14.6283C10.7426 14.3649 10.9812 14.1551 11.1936 13.9228C11.6421 13.433 12.0976 12.9487 12.549 12.4619C12.5748 12.4343 12.5956 12.4017 12.647 12.334C12.4213 12.334 12.2357 12.334 12.0495 12.334C11.2411 12.334 10.4332 12.334 9.62484 12.334C9.24168 12.334 9.00654 12.1137 9.00011 11.7529C8.99417 11.4036 9.23822 11.1512 9.61445 11.1482C10.5134 11.1411 11.4124 11.1466 12.3109 11.1441C12.3975 11.1441 12.4891 11.1677 12.601 11.106C12.2703 10.7482 11.948 10.3984 11.6243 10.0502C11.2852 9.68533 10.9411 9.32501 10.605 8.95667C10.4174 8.75042 10.3912 8.47542 10.5298 8.23805C10.655 8.02327 10.8476 7.93345 11.0931 7.95954C11.2733 7.97861 11.3842 8.10457 11.4971 8.22601C12.0971 8.86986 12.6961 9.51521 13.2941 10.1611C13.3317 10.2017 13.3559 10.2559 13.3901 10.3086C13.4822 10.2067 13.4515 10.1284 13.452 10.0587C13.4544 9.26429 13.452 8.4704 13.4544 7.67601C13.4559 7.25899 13.6787 6.99603 14.0213 7.00005C14.3534 7.00406 14.5727 7.25849 14.5757 7.66497C14.5807 8.43427 14.5772 9.20307 14.5772 9.97237C14.5772 10.0537 14.5772 10.135 14.5772 10.2178C14.6797 10.2313 14.6995 10.152 14.7391 10.1099C15.3356 9.47355 15.9281 8.83423 16.5242 8.19741C16.8088 7.8933 17.1202 7.85516 17.3682 8.087C17.6276 8.32939 17.6291 8.70777 17.3578 9.00234C16.7727 9.63765 16.1811 10.2669 15.593 10.8992C15.5331 10.9635 15.4772 11.0317 15.3905 11.1316C15.5168 11.1371 15.6024 11.1446 15.6885 11.1446C16.5791 11.1456 17.4697 11.1411 18.3603 11.1472C18.7885 11.1502 19.0563 11.4608 18.9899 11.8557C18.9395 12.1588 18.6994 12.35 18.3429 12.3495C17.4439 12.348 16.5455 12.3395 15.6465 12.334C15.5653 12.3335 15.4841 12.334 15.3722 12.334C15.4618 12.5101 15.595 12.619 15.7074 12.74C16.2613 13.3366 16.8202 13.9278 17.3786 14.5199C17.6182 14.7744 17.6321 15.1397 17.4088 15.3771C17.1801 15.6194 16.8598 15.6315 16.5994 15.3635C15.9925 14.7382 15.4029 14.0954 14.8059 13.4601C14.7455 13.3958 14.6846 13.3316 14.6212 13.2644C14.548 13.3366 14.5797 13.4159 14.5797 13.4847C14.5777 15.232 14.5807 16.9789 14.5742 18.7263C14.5737 18.9134 14.6069 18.9932 14.8123 18.9782C15.0831 18.9581 15.3564 18.9656 15.6282 18.9757C15.9945 18.9892 16.2331 19.2507 16.2222 19.6029C16.2128 19.9091 15.9376 20.2001 15.5965 20.1675C15.3103 20.1399 15.0198 20.1675 14.7311 20.1595C14.6109 20.1565 14.5737 20.1971 14.5762 20.317C14.5826 20.6513 14.5821 20.986 14.5772 21.3202C14.5717 21.7287 14.3326 22.0077 14.0049 21.9992C13.6827 21.9906 13.4594 21.7177 13.4559 21.3227C13.4535 21.0051 13.4475 20.6869 13.4589 20.3697C13.4648 20.2112 13.4287 20.1494 13.2584 20.158C12.954 20.173 12.648 20.167 12.3431 20.1605C12.006 20.1535 11.7817 19.9306 11.7674 19.6024C11.7525 19.2587 11.9634 19.0013 12.3055 18.9822C12.6342 18.9641 12.9649 18.9727 13.2945 18.9757C13.3985 18.9767 13.4584 18.9676 13.4579 18.8331C13.4525 16.9774 13.4525 15.1216 13.4505 13.2659C13.4505 13.2614 13.4386 13.2573 13.4139 13.2403L13.4129 13.2388Z" fill="#F1F1F1"/>
</svg>
