<svg width="28" height="28" viewBox="0 0 28 28" fill="none" xmlns="http://www.w3.org/2000/svg">
<circle cx="14" cy="14" r="14" fill="#3838F4"/>
<path d="M4 15.2676C4.16569 11.3993 5.85022 8.44775 9.33525 6.66933C11.5875 5.52054 13.9635 5.41892 16.3672 6.21534C16.5759 6.28493 16.7516 6.30813 16.936 6.17116C17.052 6.085 17.2376 6.04523 17.2939 5.93587C17.3558 5.81437 17.1901 5.68734 17.1382 5.55589C16.8963 4.95057 17.0023 4.37065 17.2939 3.82166C17.6419 3.16552 18.2019 2.92251 19.0061 3.02192C19.9704 3.14122 20.8088 3.55876 21.5886 4.10996C22.2857 4.60261 22.9385 5.14829 23.4455 5.8464C23.7051 6.20429 23.9094 6.59091 23.979 7.03164C24.1535 8.13183 23.2875 9.09284 22.1752 9.04203C22.0117 9.0343 21.8482 9.02435 21.6914 8.97796C21.5997 8.95145 21.5555 8.96802 21.5246 9.06412C21.4307 9.35242 21.3434 9.64183 21.2694 9.93565C21.2473 10.0218 21.2771 10.0815 21.318 10.1466C22.0703 11.3451 22.5364 12.6475 22.7109 14.0492C22.9318 15.8309 22.6999 17.5541 21.9565 19.1911C20.8044 21.7262 18.9265 23.5157 16.2644 24.3519C12.8799 25.4134 9.80029 24.7352 7.14592 22.3813C5.26588 20.7122 4.27173 18.5682 4.03977 16.0706C4.01436 15.8044 4.01326 15.5349 4 15.2676ZM18.4195 4.47227C18.7896 4.43361 19.1375 4.52308 19.4733 4.66779C20.4266 5.0787 21.2484 5.68734 22.0128 6.37882C22.2845 6.62515 22.5474 6.88473 22.7164 7.21832C23.0324 7.84132 22.701 8.38589 22.0051 8.39915C21.9211 8.40025 21.772 8.3395 21.7654 8.45327C21.7588 8.57478 21.9189 8.54054 22.0062 8.55379C23.0854 8.70623 23.8266 7.75185 23.4168 6.74224C23.3107 6.48045 23.1682 6.24075 22.9915 6.02203C22.2879 5.15381 21.4274 4.47559 20.4376 3.96415C19.9174 3.69463 19.3684 3.50132 18.7697 3.50022C18.5212 3.47813 18.2826 3.50574 18.0638 3.63608C17.5712 3.92991 17.2442 5.00801 17.6717 5.55589C17.7048 5.59897 17.7236 5.66966 17.8032 5.63321C17.8727 5.60118 17.8827 5.55368 17.8705 5.47746C17.78 4.91964 17.9147 4.67662 18.4195 4.47338V4.47227ZM17.9954 6.93002C19.0436 7.55965 19.9638 8.33839 20.7226 9.30271C20.7613 9.35132 20.79 9.43637 20.8552 9.42643C20.9215 9.41538 20.9181 9.32481 20.938 9.26626C21.1733 8.57036 21.4395 7.88771 21.8427 7.26693C22.0117 7.00734 22.0128 7.00513 21.7831 6.79526C21.4097 6.45393 21.0176 6.13802 20.5945 5.85524C20.2256 5.60891 19.85 5.38136 19.4534 5.18474C19.3673 5.14277 19.2977 5.13504 19.2137 5.20021C18.8912 5.44874 18.562 5.68955 18.2351 5.93367C17.9445 6.11482 17.6551 6.29708 17.3624 6.47603C17.2619 6.53678 17.2917 6.57544 17.3746 6.61742C17.5822 6.72125 17.7888 6.82619 17.9954 6.93112V6.93002ZM21.909 17.7364C21.92 17.7032 21.9333 17.6712 21.9421 17.637C22.4005 15.895 22.3718 14.1597 21.8074 12.4508C21.0109 10.0373 19.4744 8.2434 17.1868 7.12222C15.7033 6.39539 14.1248 6.1336 12.4801 6.3015C11.7422 6.37661 11.022 6.54009 10.3305 6.81956C9.77488 6.98967 9.27118 7.26693 8.78074 7.5729L8.7487 7.60825C8.73987 7.60052 8.73103 7.60052 8.72219 7.60604C8.02298 8.03904 7.39004 8.5549 6.85983 9.1801C4.59096 11.8532 3.94808 14.8832 5.0306 18.2147C5.81376 20.6249 7.41102 22.3813 9.7075 23.4737C11.1799 24.174 12.7385 24.4104 14.3579 24.2403C14.8086 24.1928 15.2593 24.1243 15.69 23.9708C15.763 23.9531 15.8381 23.9387 15.9099 23.9156C18.5046 23.0882 20.3603 21.4269 21.4914 18.9526C21.6704 18.5615 21.8317 18.1617 21.9101 17.7353L21.909 17.7364ZM22.3685 7.62703C22.3641 7.58616 22.374 7.50442 22.3066 7.48453C22.2536 7.46796 22.2337 7.54639 22.2039 7.58616C22.1697 7.63255 22.1365 7.68115 22.1111 7.73307C22.0813 7.79493 21.9819 7.86783 22.057 7.92196C22.1233 7.96945 22.2238 7.91091 22.2923 7.85347C22.3541 7.80155 22.3696 7.72644 22.3674 7.62703H22.3685ZM18.7377 4.9826C18.4648 4.94394 18.3146 5.02347 18.3002 5.1991C18.298 5.22561 18.3002 5.26096 18.3157 5.27863C18.3378 5.30514 18.3698 5.28305 18.3919 5.26648C18.5035 5.18032 18.6305 5.11184 18.7388 4.9826H18.7377Z" fill="#3838F4"/>
<path d="M23.4166 6.74107C23.3106 6.47928 23.1681 6.23958 22.9914 6.02087C22.2877 5.15265 21.4272 4.47442 20.4375 3.96299C19.9172 3.69346 19.3683 3.50016 18.7696 3.49905C18.521 3.47696 18.2824 3.50458 18.0637 3.63492C17.5711 3.92875 17.2441 5.00684 17.6716 5.55473C17.7047 5.59781 17.7235 5.6685 17.803 5.63205C17.8726 5.60001 17.8826 5.55252 17.8704 5.4763C17.7798 4.91847 17.9146 4.67546 18.4194 4.47221C18.7894 4.43355 19.1374 4.52302 19.4732 4.66773C20.4265 5.07864 21.2483 5.68728 22.0127 6.37876C22.2844 6.62509 22.5473 6.88467 22.7163 7.21826C23.0322 7.84126 22.7008 8.38583 22.0049 8.39909C21.921 8.40019 21.7719 8.33944 21.7652 8.45321C21.7586 8.57472 21.9188 8.54048 22.006 8.55373C23.0852 8.70617 23.8264 7.75179 23.4166 6.74218V6.74107Z" fill="#F1F1F1"/>
<path d="M17.3624 6.47502C17.2619 6.53578 17.2917 6.57444 17.3746 6.61641C17.5822 6.72025 17.7888 6.82518 17.9953 6.93012C19.0436 7.55975 19.9637 8.33849 20.7226 9.30282C20.7613 9.35142 20.79 9.43647 20.8552 9.42653C20.9214 9.41549 20.9181 9.32491 20.938 9.26636C21.1733 8.57046 21.4395 7.88782 21.8427 7.26703C22.0117 7.00744 22.0128 7.00524 21.783 6.79536C21.4097 6.45404 21.0175 6.13812 20.5945 5.85534C20.2255 5.60901 19.85 5.38146 19.4534 5.18484C19.3673 5.14287 19.2977 5.13514 19.2137 5.20031C18.8912 5.44884 18.562 5.68965 18.235 5.93377C17.9445 6.11492 17.6551 6.29718 17.3624 6.47613V6.47502Z" fill="#F1F1F1"/>
<path d="M22.2932 7.85363C22.355 7.80171 22.3705 7.7266 22.3683 7.62718C22.3639 7.58631 22.3738 7.50457 22.3064 7.48469C22.2534 7.46812 22.2335 7.54655 22.2037 7.58631C22.1695 7.6327 22.1363 7.68131 22.1109 7.73322C22.0811 7.79508 21.9817 7.86799 22.0568 7.92101C22.1231 7.9685 22.2236 7.90996 22.2921 7.85252L22.2932 7.85363Z" fill="#F1F1F1"/>
<path d="M18.3921 5.26661C18.5036 5.18045 18.6307 5.11197 18.7389 4.98273C18.465 4.94407 18.3159 5.0236 18.3015 5.19923C18.2993 5.22574 18.3015 5.26109 18.317 5.27876C18.3391 5.30527 18.3711 5.28318 18.3932 5.26661H18.3921Z" fill="#F1F1F1"/>
<path d="M21.8084 12.4507C21.012 10.0372 19.4755 8.24328 17.1878 7.12211C15.7043 6.39528 14.1258 6.13349 12.4811 6.30139C11.7432 6.3765 11.023 6.53998 10.3315 6.81945C9.77591 6.98956 9.27221 7.26681 8.78176 7.57279C8.77072 7.58494 8.76078 7.59598 8.74973 7.60813C8.74089 7.6004 8.73206 7.6004 8.72322 7.60593C8.024 8.03893 7.39106 8.55478 6.86085 9.17999C4.59089 11.8531 3.94801 14.8831 5.03052 18.2146C5.81369 20.6248 7.41095 22.3811 9.70742 23.4736C11.1799 24.1739 12.7385 24.4103 14.3578 24.2402C14.8085 24.1927 15.2592 24.1242 15.69 23.9707C15.7629 23.953 15.838 23.9386 15.9098 23.9154C18.5045 23.0881 20.3602 21.4268 21.4914 18.9524C21.6703 18.5614 21.8316 18.1615 21.91 17.7352C21.9211 17.702 21.9343 17.67 21.9431 17.6357C22.4016 15.8938 22.3728 14.1584 21.8084 12.4496V12.4507Z" fill="#F1F1F1"/>
<path d="M18.4739 12.2832C18.8125 12.2832 19.087 12.0088 19.087 11.6702C19.087 11.3316 18.8125 11.0571 18.4739 11.0571C18.1353 11.0571 17.8608 11.3316 17.8608 11.6702C17.8608 12.0088 18.1353 12.2832 18.4739 12.2832Z" fill="#3838F4"/>
<path d="M16.1589 11.2059C16.9623 11.2059 17.6136 10.5546 17.6136 9.75115C17.6136 8.94771 16.9623 8.29639 16.1589 8.29639C15.3554 8.29639 14.7041 8.94771 14.7041 9.75115C14.7041 10.5546 15.3554 11.2059 16.1589 11.2059Z" fill="#3838F4"/>
<path d="M21.8309 15.227C21.8155 14.9022 21.5205 14.5432 20.9053 14.1887C19.3235 13.2774 15.4894 13.2774 13.6933 13.8672C11.8972 14.4571 10.7981 14.5112 10.7981 14.5112C10.7981 14.5112 10.4767 14.6725 8.22438 14.3775C5.97208 14.0826 5.75779 14.3234 5.67715 14.3234C5.63297 14.3234 4.95585 14.6482 4.94922 15.28C4.94922 15.2944 4.94922 15.3087 4.94922 15.3242C4.97904 19.9602 8.74686 23.7093 13.3895 23.7093C18.0322 23.7093 21.8287 19.9315 21.8309 15.2712V15.2679C21.8309 15.2546 21.8309 15.2402 21.8309 15.227Z" fill="#3838F4"/>
<path d="M8.78203 7.57324C8.77099 7.58539 8.76105 7.59644 8.75 7.60859C8.76105 7.59644 8.77099 7.58539 8.78203 7.57324Z" fill="#96789B"/>
<path d="M21.1648 15.5805C21.3691 15.4678 21.4763 15.3607 21.4807 15.2635C21.4807 15.2602 21.4807 15.2558 21.4807 15.2524V15.2381C21.4741 15.1541 21.3979 14.8769 20.7307 14.4914C19.9873 14.0628 18.5667 13.8076 16.9308 13.8076C15.718 13.8076 14.5493 13.9534 13.8026 14.1986C12.1711 14.7344 11.1007 14.8382 10.8632 14.8559C10.776 14.8791 10.6147 14.9034 10.3065 14.9034C9.81053 14.9034 9.09474 14.8426 8.17792 14.7222C7.44998 14.6272 6.86454 14.5786 6.43596 14.5786C6.00737 14.5786 5.88476 14.6239 5.83395 14.6416C5.81517 14.6482 5.79308 14.656 5.76546 14.6615C5.68703 14.7012 5.30484 14.9155 5.29932 15.2801C5.29932 15.2856 5.29932 15.2911 5.29932 15.2966C5.29932 15.3021 5.29932 15.3077 5.29932 15.3143C5.31368 15.6159 5.59314 16.2598 7.29424 17.2076C8.34803 17.7952 9.68239 18.0924 11.2598 18.0924C13.8932 18.0924 16.3255 17.254 16.5111 17.1877C16.6712 17.1159 18.0542 16.5095 19.9033 16.0212C20.5031 15.8633 20.9041 15.723 21.1637 15.5794L21.1648 15.5805Z" fill="#F1F1F1"/>
<path d="M20.6455 7.87016C20.6665 7.82045 20.6941 7.74976 20.725 7.68127C20.8454 7.40733 21.0189 7.16542 21.2011 6.93014C21.2751 6.83404 21.3734 6.7766 21.4861 6.86718C21.5977 6.95665 21.5656 7.06048 21.4894 7.15879C21.2862 7.42279 21.0962 7.69342 20.957 7.99719C20.9261 8.06347 20.8918 8.12974 20.8013 8.0966C20.7074 8.06236 20.6389 8.00382 20.6466 7.86906L20.6455 7.87016Z" fill="#3838F4"/>
</svg>
