<svg width="47" height="31" viewBox="0 0 47 31" fill="none" xmlns="http://www.w3.org/2000/svg">
<rect x="0.5" y="0.5" width="46" height="30" rx="4.5" fill="#191919" stroke="#E6FF67"/>
<rect x="11" y="7" width="24" height="17" rx="1" fill="#E6FF67"/>
<path d="M25 15.5C25 13.0147 27.0147 11 29.5 11H37C37.5523 11 38 11.4477 38 12V19C38 19.5523 37.5523 20 37 20H29.5C27.0147 20 25 17.9853 25 15.5Z" fill="#191919"/>
<path d="M26 15.5C26 13.567 27.567 12 29.5 12H36C36.5523 12 37 12.4477 37 13V18C37 18.5523 36.5523 19 36 19H29.5C27.567 19 26 17.433 26 15.5Z" fill="#E6FF67"/>
<circle cx="29.5" cy="15.5" r="1.5" fill="#191919"/>
</svg>
